<?xml version="1.0" standalone="no"?>
<!DOCTYPE svg PUBLIC "-//W3C//DTD SVG 20010904//EN"
 "http://www.w3.org/TR/2001/REC-SVG-20010904/DTD/svg10.dtd">
<svg version="1.0" xmlns="http://www.w3.org/2000/svg"
 width="512.000000pt" height="512.000000pt" viewBox="0 0 512.000000 512.000000"
 preserveAspectRatio="xMidYMid meet">

<g transform="translate(0.000000,512.000000) scale(0.100000,-0.100000)"
fill="#000000" stroke="none">
<path d="M3245 4507 c-50 -20 -89 -47 -116 -83 -14 -18 -376 -811 -804 -1761
-714 -1585 -779 -1733 -783 -1791 -13 -188 159 -318 339 -257 105 36 54 -67
911 1836 715 1587 782 1739 786 1797 8 111 -45 203 -143 248 -55 26 -139 31
-190 11z"/>
<path d="M1085 3729 c-51 -25 -1016 -986 -1053 -1049 -23 -38 -27 -56 -27
-120 0 -53 6 -85 19 -110 10 -19 241 -259 515 -534 545 -547 543 -546 657
-546 112 0 216 77 245 183 14 51 6 133 -16 178 -9 19 -195 213 -413 432 l-397
397 397 398 c218 218 404 412 413 431 60 119 7 272 -114 334 -69 34 -164 37
-226 6z"/>
<path d="M3860 3661 c-119 -39 -198 -149 -188 -264 8 -99 24 -118 438 -532
l390 -390 -399 -400 c-371 -372 -400 -404 -416 -454 -41 -126 11 -252 129
-314 55 -29 164 -30 221 -3 55 26 1035 1006 1061 1061 28 59 26 166 -5 225
-33 64 -976 1008 -1043 1045 -53 29 -142 41 -188 26z"/>
</g>
</svg>
